<svg width="461" height="430" viewBox="0 0 461 430" fill="none" xmlns="http://www.w3.org/2000/svg">
<rect width="461" height="430" rx="105" fill="white"/>
<path d="M84 326C79.6 326 75.9333 325.133 73 323.4C70.2 321.667 67.8 319.533 65.8 317C63.8 314.6 62 312.133 60.4 309.6C58.9333 307.067 57.4 304.933 55.8 303.2C54.3333 301.467 52.5333 300.6 50.4 300.6C48.1333 300.6 46.0667 301.267 44.2 302.6C42.4667 303.933 40.8 305.467 39.2 307.2C37.7333 308.933 36.1333 310.467 34.4 311.8C32.6667 313.133 30.6667 313.8 28.4 313.8C25.2 313.8 23.6 312.267 23.6 309.2C23.6 306.933 24.9333 304.667 27.6 302.4C30.1333 300.267 34.2667 298.467 40 297L63.4 286.6C64.7333 285.933 65.3333 285.267 65.2 284.6C65.2 283.933 64.5333 283.333 63.2 282.8C56.2667 280.133 50.8 274.733 46.8 266.6C42.8 258.467 40.8 247.733 40.8 234.4C40.8 224.533 41.9333 214.867 44.2 205.4C46.4667 195.933 49.6 187.133 53.6 179C57.6 170.733 62.2 163.467 67.4 157.2C72.7333 150.8 78.4 145.867 84.4 142.4C90.5333 138.8 96.8 137 103.2 137C113.6 137 121.8 141.267 127.8 149.8C133.933 158.2 137 170.733 137 187.4C137 197.667 135.733 207.8 133.2 217.8C130.8 227.667 127.4 236.867 123 245.4C118.733 253.8 113.733 261.133 108 267.4C102.267 273.533 96.1333 278.133 89.6 281.2C86.8 282.533 84.2667 283.533 82 284.2C79.7333 285 77.1333 286.133 74.2 287.6L62.2 293.2C61 293.733 60.4 294.4 60.4 295.2C60.5333 296 61.2667 296.667 62.6 297.2C66.2 298.667 69.4667 300.533 72.4 302.8C75.4667 305.2 78.4667 307.267 81.4 309C84.4667 310.733 87.7333 311.6 91.2 311.6C95.0667 311.6 98.4667 310.267 101.4 307.6C104.333 305.067 106.867 300.4 109 293.6C109.533 291.867 110.467 291 111.8 291C113.533 291 114.2 292.2 113.8 294.6C111.933 304.067 108.267 311.667 102.8 317.4C97.4667 323.133 91.2 326 84 326ZM74.2 279.6C79.1333 279.6 83.9333 277.667 88.6 273.8C93.4 269.8 97.8667 264.4 102 257.6C106.267 250.667 110 242.733 113.2 233.8C116.4 224.733 118.867 215.133 120.6 205C122.467 194.867 123.4 184.6 123.4 174.2C123.4 152.867 116.8 142.2 103.6 142.2C98.6667 142.2 93.8 144.2 89 148.2C84.3333 152.067 79.8667 157.467 75.6 164.4C71.4667 171.2 67.8 179.133 64.6 188.2C61.4 197.133 58.8667 206.667 57 216.8C55.2667 226.933 54.4 237.2 54.4 247.6C54.4 268.933 61 279.6 74.2 279.6ZM161.203 284.8C156.27 284.8 152.87 282.6 151.003 278.2C149.27 273.667 149.403 267.733 151.403 260.4L167.203 202.4C168.27 198.533 168.536 195.533 168.003 193.4C167.47 191.267 166.27 190.2 164.403 190.2C161.336 190.2 158.203 192.533 155.003 197.2C151.936 201.867 149.27 208.333 147.003 216.6C146.603 218.067 145.736 218.8 144.403 218.8C142.536 218.8 141.936 217.467 142.603 214.8C145.67 203.6 149.67 195 154.603 189C159.67 182.867 165.203 179.8 171.203 179.8C176.003 179.8 179.203 182 180.803 186.4C182.403 190.8 182.136 196.8 180.003 204.4L164.003 262.4C161.47 271.6 162.336 276.2 166.603 276.2C169.27 276.2 172.336 274.4 175.803 270.8C179.27 267.2 182.87 262.267 186.603 256C190.47 249.733 194.27 242.6 198.003 234.6C201.736 226.6 205.136 218.2 208.203 209.4C211.27 200.6 213.803 191.867 215.803 183.2C216.203 181.733 217.136 181 218.603 181H226.603C228.47 181 229.203 181.867 228.803 183.6L210.003 264C208.536 270.267 209.67 273.4 213.403 273.4C219.003 273.4 224.87 264.933 231.003 248C231.536 246.267 232.47 245.4 233.803 245.4C234.603 245.4 235.136 245.733 235.403 246.4C235.803 247.067 235.803 247.933 235.403 249C231.803 260.333 227.536 269.133 222.603 275.4C217.67 281.667 212.47 284.8 207.003 284.8C197.403 284.8 194.203 277.8 197.403 263.8L202.603 241.6C202.87 240.667 202.67 240.133 202.003 240C201.47 239.867 201.003 240.2 200.603 241C192.87 257 185.736 268.333 179.203 275C172.67 281.533 166.67 284.8 161.203 284.8ZM270.566 284.8C262.299 284.8 255.766 281.4 250.966 274.6C246.166 267.667 243.766 258.333 243.766 246.6C243.766 237.933 245.166 229.6 247.966 221.6C250.766 213.6 254.432 206.467 258.966 200.2C263.632 193.933 268.766 189 274.366 185.4C280.099 181.667 285.832 179.8 291.566 179.8C299.832 179.8 306.366 183.2 311.166 190C315.966 196.8 318.366 206.133 318.366 218C318.366 226.667 316.966 235 314.166 243C311.366 251 307.632 258.133 302.966 264.4C298.432 270.667 293.299 275.667 287.566 279.4C281.966 283 276.299 284.8 270.566 284.8ZM270.166 280C274.432 280 278.566 277.933 282.566 273.8C286.699 269.667 290.432 264.2 293.766 257.4C297.099 250.6 299.766 243.067 301.766 234.8C303.766 226.4 304.766 218 304.766 209.6C304.766 192.933 300.432 184.6 291.766 184.6C287.632 184.6 283.499 186.667 279.366 190.8C275.232 194.8 271.499 200.2 268.166 207C264.966 213.8 262.366 221.4 260.366 229.8C258.366 238.067 257.366 246.4 257.366 254.8C257.366 271.6 261.632 280 270.166 280ZM337.378 285C332.978 285 329.845 283.4 327.978 280.2C326.111 276.867 326.045 271.467 327.778 264L353.178 155C353.845 152.6 353.845 150.933 353.178 150C352.645 149.067 351.445 148.533 349.578 148.4L343.578 147.8C341.578 147.667 340.711 146.8 340.978 145.2C341.245 144 342.178 143.267 343.778 143C348.578 142.2 352.845 141.267 356.578 140.2C360.311 139 363.311 137.467 365.578 135.6C366.645 134.8 367.645 134.4 368.578 134.4C370.178 134.4 370.778 135.4 370.378 137.4L340.778 264.2C340.111 267.133 339.978 269.467 340.378 271.2C340.911 272.8 342.178 273.6 344.178 273.6C346.578 273.6 349.178 271.867 351.978 268.4C354.911 264.8 358.178 258.067 361.778 248.2C362.311 246.467 363.245 245.6 364.578 245.6C366.578 245.6 367.111 246.8 366.178 249.2C363.378 258.267 360.245 265.467 356.778 270.8C353.445 276 350.111 279.667 346.778 281.8C343.445 283.933 340.311 285 337.378 285ZM385.425 285C381.025 285 377.892 283.4 376.025 280.2C374.158 276.867 374.092 271.467 375.825 264L401.225 155C401.892 152.6 401.892 150.933 401.225 150C400.692 149.067 399.492 148.533 397.625 148.4L391.625 147.8C389.625 147.667 388.758 146.8 389.025 145.2C389.292 144 390.225 143.267 391.825 143C396.625 142.2 400.892 141.267 404.625 140.2C408.358 139 411.358 137.467 413.625 135.6C414.692 134.8 415.692 134.4 416.625 134.4C418.225 134.4 418.825 135.4 418.425 137.4L388.825 264.2C388.158 267.133 388.025 269.467 388.425 271.2C388.958 272.8 390.225 273.6 392.225 273.6C394.625 273.6 397.225 271.867 400.025 268.4C402.958 264.8 406.225 258.067 409.825 248.2C410.358 246.467 411.292 245.6 412.625 245.6C414.625 245.6 415.158 246.8 414.225 249.2C411.425 258.267 408.292 265.467 404.825 270.8C401.492 276 398.158 279.667 394.825 281.8C391.492 283.933 388.358 285 385.425 285Z" fill="black"/>
</svg>
