<svg width="316" height="316" viewBox="0 0 316 316" fill="none" xmlns="http://www.w3.org/2000/svg">
<g clip-path="url(#clip0_36_62)">
<rect width="316" height="316" rx="80" fill="#2C1B13"/>
<path d="M154.249 163.778C153.13 163.795 152.231 162.82 152.237 161.701C152.855 54.4493 48.3731 51.6563 154.211 31.5119C161.088 30.203 163.788 31.2693 163.788 36.2839L163.788 160.164C163.788 160.76 163.528 161.334 163.038 161.672C160.476 163.438 157.582 163.73 154.249 163.778Z" fill="#FBBF24"/>
<path d="M162.045 153.222C163.163 153.205 164.063 154.18 164.057 155.299C163.444 262.551 266.85 265.344 162.103 285.488C155.297 286.797 152.625 285.731 152.625 280.716L152.625 156.83C152.625 156.238 152.882 155.666 153.367 155.328C155.897 153.566 158.754 153.271 162.045 153.222Z" fill="#FBBF24"/>
<path d="M163.779 162.869C163.794 163.988 162.82 164.888 161.701 164.881C54.4493 164.257 51.6563 269.816 31.5119 162.887C30.203 155.939 31.2693 153.212 36.2839 153.212L160.158 153.212C160.757 153.212 161.334 153.475 161.672 153.97C163.441 156.563 163.731 159.493 163.779 162.869Z" fill="#FBBF24"/>
<path d="M152.634 154.25C152.617 153.131 153.592 152.231 154.711 152.238C261.963 152.856 264.756 48.3735 284.9 154.212C286.209 161.089 285.143 163.788 280.128 163.788L156.248 163.788C155.653 163.788 155.078 163.528 154.74 163.038C152.974 160.476 152.682 157.583 152.634 154.25Z" fill="#FBBF24"/>
<path d="M157.33 146.704C158.116 145.908 159.442 145.962 160.225 146.761C280.651 269.727 402.329 154.263 305.547 296.546C299.274 305.769 295.032 307.609 289.382 301.959L149.414 161.991C148.993 161.57 148.775 160.981 148.863 160.392C149.69 154.86 153.092 150.988 157.33 146.704Z" fill="#FBBF24"/>
<path d="M158.748 169.107C157.962 169.902 156.636 169.849 155.853 169.05C35.4143 46.0965 -85.0416 160.338 10.5075 19.2872C16.7008 10.1445 20.9122 8.33584 26.562 13.9857L166.534 153.958C166.953 154.376 167.171 154.961 167.086 155.547C166.293 161.04 162.935 164.872 158.748 169.107Z" fill="#FBBF24"/>
<path d="M145.907 158.481C145.112 157.693 145.165 156.367 145.965 155.585C268.943 35.1723 152.258 -87.7279 295.773 10.2856C305.075 16.6387 306.947 20.9128 301.297 26.5626L161.333 166.526C160.91 166.949 160.316 167.168 159.724 167.076C154.153 166.215 150.242 162.769 145.907 158.481Z" fill="#FBBF24"/>
<path d="M169.902 157.329C170.698 158.116 170.644 159.442 169.845 160.225C46.8792 280.65 162.343 402.328 20.0598 305.547C10.8372 299.274 8.99721 295.031 14.6471 289.381L154.615 149.414C155.036 148.993 155.625 148.774 156.214 148.862C161.746 149.69 165.618 153.091 169.902 157.329Z" fill="#FBBF24"/>
</g>
<defs>
<clipPath id="clip0_36_62">
<rect width="316" height="316" rx="80" fill="white"/>
</clipPath>
</defs>
</svg>
